Coordinates
version=1
nRows=11
nColumns=42
inDegrees=yes

Units are S.I. units (second, meters, Newtons, ...)
If the header above contains a line with 'inDegrees', this indicates whether rotational values are in degrees (yes) or radians (no).

endheader
time	pelvis_tilt	pelvis_list	pelvis_rotation	pelvis_tx	pelvis_ty	pelvis_tz	hip_flexion_r	hip_adduction_r	hip_rotation_r	knee_angle_r	knee_adduction_r	knee_angle_r_beta	ankle_angle_r	subtalar_angle_r	mtp_angle_r	hip_flexion_l	hip_adduction_l	hip_rotation_l	knee_angle_l	knee_adduction_l	knee_angle_l_beta	ankle_angle_l	subtalar_angle_l	mtp_angle_l	lumbar_extension	lumbar_bending	lumbar_rotation	arm_flex_r	arm_add_r	arm_rot_r	elbow_flex_r	pro_sup_r	wrist_flex_r	wrist_dev_r	arm_flex_l	arm_add_l	arm_rot_l	elbow_flex_l	pro_sup_l	wrist_flex_l	wrist_dev_l
      0.14000000	      4.23677668	     -0.94729612	      9.65439139	     -1.33410837	      0.83839045	      0.15618346	     27.10725433	      0.71997094	     -7.36270577	     22.39094224	     -1.82175507	      0.39079566	      9.69207485	    -16.64087484	     -9.45424415	      5.64502913	      5.20134985	    -11.42910409	     40.57446937	    -14.60656081	      0.70815808	     37.20944899	     -4.75526039	     -9.45424415	    -31.83204438	      5.31175121	     -7.61821528	      8.45206967	     -4.82530900	    -11.57218122	     27.13358666	     90.00000001	      0.00000000	      0.00000000	     24.67197999	    -13.60448453	     -3.15309904	     43.16753942	     90.00000001	      0.00000000	      0.00000000
      0.15000000	      4.30293956	     -1.09915723	      9.69111438	     -1.32399001	      0.83799601	      0.15760180	     26.96763876	      1.23063185	     -7.01272471	     23.37068349	     -1.86657190	      0.40789538	      9.25939154	    -16.66229587	     -9.44037529	      4.88156427	      4.78502865	    -11.39397276	     40.78836987	    -14.66785814	      0.71189135	     37.30823955	     -4.91846154	     -9.44037529	    -31.80446873	      5.49943630	     -7.50253026	      8.11675344	     -4.87949768	    -11.75244468	     27.00081583	     90.00000001	      0.00000000	      0.00000000	     24.65052144	    -13.50867129	     -3.21566306	     43.23889484	     90.00000001	      0.00000000	      0.00000000
      0.16000000	      4.39547639	     -1.29184888	      9.72872781	     -1.31381870	      0.83782745	      0.15911894	     26.76335597	      1.81066035	     -6.58219371	     24.37905481	     -1.90935390	      0.42549477	      8.89195275	    -16.74576253	     -9.43272573	      4.16152280	      4.41521326	    -11.25284461	     41.12072740	    -14.94560289	      0.71769208	     37.27710327	     -5.01218613	     -9.43272573	    -31.81436132	      5.70315457	     -7.38898184	      7.83494022	     -4.89027572	    -11.85580212	     26.87155395	     90.00000001	      0.00000000	      0.00000000	     24.48365291	    -13.45831855	     -3.28037820	     43.25489408	     90.00000001	      0.00000000	      0.00000000
      0.17000000	      4.46919701	     -1.42088012	      9.71325559	     -1.30369305	      0.83782238	      0.16067146	     26.76428567	      2.28892731	     -6.29069242	     25.88437041	     -1.99695149	      0.45176749	      7.99743741	    -17.55975611	     -9.40202595	      3.57103484	      4.05762754	    -11.32253733	     41.62992247	    -15.16829611	      0.72657921	     36.98363066	     -5.48244897	     -9.40202595	    -31.83096807	      5.83295035	     -7.20240209	      7.62502503	     -4.93605766	    -12.19062955	     26.70982312	     90.00000001	      0.00000000	      0.00000000	     24.35656640	    -13.24508868	     -3.55601252	     43.53623442	     90.00000001	      0.00000000	      0.00000000
      0.18000000	      4.63499223	     -1.60095194	      9.76467859	     -1.29341628	      0.83826113	      0.16218835	     26.38635585	      2.87070115	     -5.66400879	     26.87664942	     -2.02550904	      0.46908602	      7.84365038	    -17.61063201	     -9.39678177	      2.92889890	      3.76571952	    -11.05197324	     42.24607585	    -15.55123798	      0.73733312	     36.73087850	     -5.53231619	     -9.39678177	    -31.91661437	      6.07460804	     -7.09545341	      7.42871442	     -4.90873223	    -12.24939755	     26.60878478	     90.00000001	      0.00000000	      0.00000000	     24.03297120	    -13.19755947	     -3.62239953	     43.46744478	     90.00000001	      0.00000000	      0.00000000
      0.19000000	      4.84800407	     -1.72619346	      9.67740801	     -1.28332768	      0.83891594	      0.16404014	     26.13730979	      3.37776710	     -4.95072508	     28.29322209	     -1.88211349	      0.49380988	      7.71992014	    -18.14858839	     -9.38296326	      2.45449992	      3.29233929	    -11.03511994	     43.34491532	    -15.56261046	      0.75651149	     35.83240242	     -5.93535637	     -9.38296326	    -32.12532368	      6.16818988	     -6.82124450	      7.44931388	     -4.98245074	    -12.37353727	     26.54536972	     90.00000001	      0.00000000	      0.00000000	     23.88110893	    -13.08225151	     -3.81297582	     43.55533269	     90.00000001	      0.00000000	      0.00000000
      0.20000000	      4.72587373	     -1.85244013	      9.66918242	     -1.27353725	      0.83932928	      0.16566203	     26.12942044	      3.76896559	     -4.23695466	     29.36584866	     -1.69618727	      0.51253075	      7.84634930	    -18.54540152	     -9.34307291	      2.59271326	      3.17277982	    -10.47624209	     44.87073861	    -15.81367975	      0.78314213	     33.89003658	     -7.54039076	     -9.34307291	    -31.96859436	      6.29047346	     -6.72659475	      7.42483736	     -4.97987305	    -12.65942516	     26.42716676	     90.00000001	      0.00000000	      0.00000000	     23.48756292	    -12.82341246	     -4.34591376	     43.68075022	     90.00000001	      0.00000000	      0.00000000
      0.21000000	      4.83763578	     -1.89079063	      9.70775511	     -1.26380998	      0.84050979	      0.16725170	     25.71323596	      4.03521845	     -3.80313051	     30.22912184	     -1.49829961	      0.52759771	      8.18883435	    -18.67524749	     -9.22872429	      2.32883182	      3.32100846	     -8.30919510	     46.51075999	    -15.22886496	      0.81176590	     31.81969566	    -11.33143880	     -9.22872429	    -32.12057189	      6.35736903	     -6.62916599	      7.54275001	     -4.86336307	    -13.19893672	     26.24387061	     90.00000001	      0.00000000	      0.00000000	     23.24687631	    -12.52862105	     -5.32360150	     43.53877175	     90.00000001	      0.00000000	      0.00000000
      0.22000000	      4.85579633	     -1.98215435	      9.74179558	     -1.25419358	      0.84158438	      0.16894263	     25.29663694	      4.35561586	     -3.65266793	     30.82096093	     -1.38361997	      0.53792725	      8.75962657	    -18.71130201	     -9.17954746	      2.63044043	      3.17675227	     -7.42245837	     48.58917713	    -15.15040667	      0.84804112	     29.81245289	    -12.56689869	     -9.17954746	    -32.15488335	      6.45551109	     -6.55568299	      7.65540528	     -4.87617191	    -13.30429602	     26.27295338	     90.00000001	      0.00000000	      0.00000000	     22.92624327	    -12.37680654	     -5.49879765	     43.29441628	     90.00000001	      0.00000000	      0.00000000
      0.23000000	      4.88210046	     -2.05629943	      9.82119973	     -1.24486624	      0.84294572	      0.17058269	     24.75106374	      4.61092372	     -3.88686790	     31.15933104	     -1.36785165	      0.54383292	      9.33711218	    -18.69161041	     -9.09528347	      2.99282421	      3.20090934	     -5.32081884	     50.97297134	    -14.36557771	      0.88964618	     27.37736182	    -15.41006529	     -9.09528347	    -32.26213895	      6.55730362	     -6.45381140	      7.84457118	     -4.88608852	    -13.34381390	     26.32313144	     90.00000001	      0.00000000	      0.00000000	     22.69907425	    -12.16309941	     -5.87055898	     42.93253643	     90.00000001	      0.00000000	      0.00000000
      0.24000000	      4.83440837	     -2.17739868	      9.91866970	     -1.23572212	      0.84420700	      0.17226033	     24.18971957	      4.90474238	     -4.44266519	     31.24529713	     -1.47848326	      0.54533331	      9.95300915	    -18.60132659	     -9.02993346	      3.73495580	      3.08609954	     -3.53330324	     53.64118710	    -13.60231509	      0.93621533	     25.10784592	    -16.88994313	     -9.02993346	    -32.28487777	      6.69864653	     -6.34909436	      8.03462176	     -4.90992119	    -13.27652786	     26.42764272	     90.00000001	      0.00000000	      0.00000000	     22.40040435	    -11.97931007	     -6.13520155	     42.55772797	     90.00000001	      0.00000000	      0.00000000
